<svg width="236" height="273" viewBox="0 0 236 273" fill="none" xmlns="http://www.w3.org/2000/svg">
<path d="M118 76.0625C125.767 76.0625 132.062 69.7665 132.062 62C132.062 54.2335 125.767 47.9375 118 47.9375C110.233 47.9375 103.938 54.2335 103.938 62C103.938 69.7665 110.233 76.0625 118 76.0625Z" fill="#FFCAB6"/>
<path d="M106.188 54.3125C105.006 56.0712 104.236 58.0742 103.938 60.1719C93.9062 57.0781 80.5 49.1094 71.4531 28.8594L88.0469 18.9219C88.2289 23.8707 89.194 28.7595 90.9062 33.4062C94.0705 41.5989 99.3419 48.8107 106.188 54.3125ZM119.172 22.7188C115.586 30.727 114.164 39.5358 115.047 48.2656C113.015 48.6864 111.106 49.5684 109.469 50.8438C104.547 41.4688 100.844 26.5625 108.625 5.75L127.375 10.4375C124.036 14.0931 121.27 18.2339 119.172 22.7188ZM161.078 32.1875C156.129 32.3695 151.241 33.3346 146.594 35.0469C138.417 38.1717 131.207 43.3935 125.688 50.1875C123.929 49.0056 121.926 48.2365 119.828 47.9375C122.922 37.9062 130.891 24.5 151.141 15.4531C154.469 21.125 157.797 26.6563 161.078 32.1875ZM174.25 52.625C172.703 58.8594 171.109 65.1406 169.562 71.375C165.907 68.0357 161.766 65.2699 157.281 63.1719C149.273 59.5859 140.464 58.1636 131.734 59.0469C131.314 57.0146 130.432 55.1061 129.156 53.4688C138.391 48.5469 153.438 44.8438 174.25 52.625Z" fill="#FFCAB6"/>
<path d="M221.125 226.062C187.545 235.394 152.853 240.125 118 240.125C83.1467 240.131 48.4543 235.4 14.875 226.062C18.564 211.687 23.2632 197.589 28.9375 183.875C46.8813 141.233 73.6753 102.887 107.547 71.375C108.866 72.8404 110.478 74.0121 112.278 74.8142C114.079 75.6163 116.029 76.0308 118 76.0308C119.971 76.0308 121.921 75.6163 123.722 74.8142C125.522 74.0121 127.134 72.8404 128.453 71.375C162.325 102.887 189.119 141.233 207.062 183.875C212.737 197.589 217.436 211.687 221.125 226.062Z" fill="#D84861"/>
<path d="M57.0626 165.125C57.0626 171.341 54.5933 177.302 50.1979 181.698C45.8025 186.093 39.8411 188.562 33.6251 188.562C31.5179 188.572 29.4197 188.288 27.3907 187.719C27.8594 186.453 28.4219 185.188 28.9376 183.875C34.3302 170.964 40.5946 158.435 47.6876 146.375C50.5984 148.558 52.961 151.389 54.5882 154.643C56.2154 157.898 57.0626 161.486 57.0626 165.125ZM142.094 84.9688C152.87 96.2447 162.848 108.258 171.953 120.922C169.635 123.171 166.877 124.917 163.851 126.049C160.826 127.182 157.6 127.677 154.375 127.503C151.149 127.33 147.994 126.491 145.108 125.041C142.222 123.59 139.667 121.559 137.603 119.074C135.54 116.589 134.012 113.704 133.116 110.601C132.22 107.498 131.975 104.243 132.397 101.04C132.818 97.8377 133.897 94.757 135.566 91.9913C137.235 89.2256 139.457 86.8348 142.094 84.9688ZM207.766 185.609C204.756 187.534 201.26 188.558 197.688 188.562C193.241 188.564 188.939 186.984 185.549 184.107C182.159 181.229 179.902 177.24 179.181 172.853C178.46 168.465 179.322 163.964 181.613 160.153C183.904 156.342 187.474 153.469 191.688 152.047C197.426 162.349 202.56 172.976 207.063 183.875L207.766 185.609ZM221.125 258.875C187.103 265.102 152.587 268.24 118 268.25C83.4124 268.248 48.896 265.111 14.8751 258.875C11.6892 256.967 9.11449 254.189 7.4537 250.867C5.79292 247.545 5.11514 243.819 5.50007 240.125C5.93946 237.238 7.00667 234.483 8.62647 232.053C10.2463 229.623 12.3792 227.578 14.8751 226.062C48.4543 235.4 83.1468 240.131 118 240.125C152.853 240.125 187.545 235.394 221.125 226.062C223.621 227.578 225.754 229.623 227.374 232.053C228.993 234.483 230.061 237.238 230.5 240.125C230.885 243.819 230.207 247.545 228.546 250.867C226.886 254.189 224.311 256.967 221.125 258.875Z" fill="#FFCAB6"/>
<path d="M85.0625 121.438C90.2402 121.438 94.4375 117.24 94.4375 112.062C94.4375 106.885 90.2402 102.688 85.0625 102.688C79.8848 102.688 75.6875 106.885 75.6875 112.062C75.6875 117.24 79.8848 121.438 85.0625 121.438Z" fill="#FFCAB6"/>
<path fill-rule="evenodd" clip-rule="evenodd" d="M85.0625 126.125C87.8438 126.125 90.5626 125.3 92.8752 123.755C95.1878 122.21 96.9902 120.014 98.0546 117.444C99.1189 114.874 99.3974 112.047 98.8548 109.319C98.3122 106.591 96.9729 104.086 95.0062 102.119C93.0395 100.152 90.5338 98.8128 87.806 98.2702C85.0781 97.7276 82.2506 98.0061 79.681 99.0705C77.1114 100.135 74.9152 101.937 73.37 104.25C71.8247 106.562 71 109.281 71 112.063C71 115.792 72.4816 119.369 75.1188 122.006C77.756 124.643 81.3329 126.125 85.0625 126.125ZM87.6667 108.165C86.8959 107.65 85.9896 107.375 85.0625 107.375C83.8193 107.375 82.627 107.869 81.7479 108.748C80.8689 109.627 80.375 110.819 80.375 112.063C80.375 112.99 80.6499 113.896 81.165 114.667C81.6801 115.438 82.4121 116.038 83.2687 116.393C84.1252 116.748 85.0677 116.841 85.977 116.66C86.8863 116.479 87.7215 116.033 88.3771 115.377C89.0326 114.722 89.4791 113.886 89.6599 112.977C89.8408 112.068 89.748 111.125 89.3932 110.269C89.0384 109.412 88.4376 108.68 87.6667 108.165Z" fill="#0B1A48"/>
<path d="M76.0626 235.438C81.2403 235.438 85.4376 231.24 85.4376 226.063C85.4376 220.885 81.2403 216.688 76.0626 216.688C70.885 216.688 66.6876 220.885 66.6876 226.063C66.6876 231.24 70.885 235.438 76.0626 235.438Z" fill="#FFCAB6"/>
<path fill-rule="evenodd" clip-rule="evenodd" d="M76.0625 212C73.2812 212 70.5624 212.825 68.2498 214.37C65.9372 215.915 64.1348 218.111 63.0704 220.681C62.0061 223.251 61.7276 226.078 62.2702 228.806C62.8128 231.534 64.1521 234.04 66.1188 236.006C68.0855 237.973 70.5912 239.312 73.319 239.855C76.0469 240.397 78.8744 240.119 81.444 239.055C84.0136 237.99 86.2098 236.188 87.7551 233.875C89.3003 231.563 90.125 228.844 90.125 226.063C90.125 222.333 88.6434 218.756 86.0062 216.119C83.369 213.482 79.7921 212 76.0625 212ZM73.4583 229.96C74.2291 230.475 75.1354 230.75 76.0625 230.75C77.3057 230.75 78.498 230.256 79.3771 229.377C80.2562 228.498 80.75 227.306 80.75 226.063C80.75 225.135 80.4751 224.229 79.96 223.458C79.445 222.687 78.7129 222.087 77.8563 221.732C76.9998 221.377 76.0573 221.284 75.148 221.465C74.2387 221.646 73.4035 222.092 72.7479 222.748C72.0924 223.404 71.6459 224.239 71.4651 225.148C71.2842 226.057 71.377 227 71.7318 227.856C72.0866 228.713 72.6874 229.445 73.4583 229.96Z" fill="#0B1A48"/>
<path d="M235.188 239.563C234.732 236.296 233.616 233.157 231.908 230.337C230.199 227.516 227.934 225.073 225.25 223.156C221.716 209.766 217.332 196.614 212.125 183.781C207.376 172.059 201.896 160.646 195.719 149.609C189.718 138.879 183.13 128.489 175.984 118.484C166.714 105.526 156.532 93.2448 145.516 81.7344C142 77.9844 138.297 74.375 134.547 70.7656C135.757 68.5479 136.506 66.1084 136.75 63.5938C147.769 63.3421 158.457 67.375 166.563 74.8438C167.163 75.3857 167.894 75.763 168.684 75.9388C169.474 76.1146 170.296 76.083 171.069 75.8471C171.843 75.6111 172.543 75.1788 173.1 74.5923C173.658 74.0058 174.054 73.285 174.25 72.5L178.938 53.75C179.218 52.632 179.077 51.4499 178.54 50.4296C178.004 49.4092 177.111 48.6221 176.031 48.2188C163.965 43.2246 150.636 42.1425 137.922 45.125C144.721 40.0689 152.893 37.1924 161.359 36.875C162.171 36.8428 162.96 36.6003 163.649 36.1714C164.339 35.7425 164.905 35.1418 165.293 34.4282C165.68 33.7146 165.876 32.9126 165.86 32.1007C165.844 31.2889 165.618 30.495 165.203 29.7969C161.922 24.2656 158.594 18.7344 155.266 13.2031C154.677 12.2142 153.744 11.4766 152.647 11.1308C151.549 10.785 150.362 10.8552 149.313 11.3281C137.236 16.3116 127.035 24.971 120.156 36.0781C121.419 27.6687 125.175 19.8312 130.938 13.5781C131.515 12.9733 131.921 12.2248 132.112 11.4103C132.303 10.5958 132.273 9.74506 132.024 8.94631C131.775 8.14755 131.317 7.42992 130.698 6.86787C130.078 6.30583 129.319 5.91985 128.5 5.75001L109.75 1.06251C108.632 0.78215 107.45 0.923535 106.43 1.45965C105.409 1.99577 104.622 2.88903 104.219 3.96876C99.2246 16.0351 98.1425 29.3643 101.125 42.0781C96.0689 35.2793 93.1925 27.1075 92.8751 18.6406C92.791 17.8575 92.5109 17.1083 92.0608 16.462C91.6106 15.8157 91.0049 15.2933 90.2995 14.9429C89.5942 14.5925 88.8119 14.4256 88.0249 14.4574C87.238 14.4892 86.4717 14.7188 85.7969 15.125L69.2032 24.8281C68.2143 25.4171 67.4766 26.3494 67.1308 27.4473C66.785 28.5451 66.8553 29.7319 67.3282 30.7813C76.3282 50.6563 89.1719 59.5156 99.3907 63.5938C99.5928 66.1338 100.311 68.606 101.5 70.8594C79.0622 92.3154 59.692 116.765 43.9376 143.516C35.7889 157.149 28.7807 171.432 22.9844 186.219C18.1935 198.279 14.1239 210.613 10.7969 223.156C7.58348 225.446 4.99202 228.501 3.25729 232.045C1.52255 235.589 0.699359 239.51 0.862268 243.452C1.02518 247.395 2.16904 251.234 4.19025 254.623C6.21146 258.012 9.04615 260.843 12.4376 262.859C47.1977 269.753 82.5635 273.129 118 272.938C152.868 272.946 187.665 269.808 221.969 263.563C226.411 261.454 230.078 258.003 232.451 253.695C234.823 249.388 235.78 244.444 235.188 239.563ZM168.672 55.6719L166.797 63.2188C158.885 57.8235 149.642 54.7098 140.078 54.2188C149.555 51.9942 159.469 52.498 168.672 55.6719ZM77.6876 30.6875L84.3438 26.6563C86.1306 36.0818 90.4953 44.8275 96.9532 51.9219C88.653 46.8075 81.9728 39.4447 77.6876 30.6875ZM189.672 158.234C194.078 166.453 198.078 174.813 201.672 183.313C198.456 184.288 194.996 184.079 191.921 182.724C188.845 181.369 186.357 178.957 184.906 175.925C183.455 172.893 183.138 169.442 184.013 166.197C184.887 162.952 186.895 160.127 189.672 158.234ZM141.766 91.4844C150.095 100.58 157.919 110.126 165.203 120.078C161.356 122.273 156.857 123.036 152.501 122.231C148.146 121.426 144.216 119.105 141.408 115.68C138.601 112.254 137.096 107.945 137.162 103.517C137.227 99.088 138.858 94.8255 141.766 91.4844ZM149.359 21.6875L153.344 28.3438C143.918 30.1306 135.173 34.4953 128.078 40.9531C133.205 32.6463 140.585 25.9655 149.359 21.6875ZM111.859 11.3281L119.406 13.25C117.772 15.6316 116.33 18.1395 115.094 20.75C112.348 26.7753 110.757 33.2627 110.406 39.875C108.13 30.4302 108.569 20.5345 111.672 11.3281H111.859ZM108.625 60.5469C108.842 59.0904 109.399 57.7055 110.25 56.5043C111.102 55.3031 112.225 54.3194 113.527 53.6329C114.83 52.9464 116.276 52.5765 117.748 52.553C119.221 52.5295 120.678 52.8532 122.002 53.4978C123.326 54.1424 124.479 55.0898 125.369 56.2632C126.258 57.4366 126.859 58.8031 127.122 60.2519C127.385 61.7008 127.303 63.1912 126.883 64.6024C126.463 66.0137 125.716 67.3061 124.703 68.375C124.268 68.8189 123.798 69.2266 123.297 69.5938C121.68 70.6506 119.791 71.2134 117.859 71.2134C115.928 71.2134 114.039 70.6506 112.422 69.5938C111.921 69.2266 111.45 68.8189 111.016 68.375C110.051 67.3359 109.335 66.0915 108.921 64.7356C108.507 63.3797 108.406 61.9475 108.625 60.5469ZM36.6251 177.734C40.1876 169.578 44.2657 161.656 48.5782 153.875C50.6431 156.626 51.9117 159.891 52.2451 163.315C52.5785 166.738 51.9638 170.187 50.4684 173.284C48.9729 176.382 46.6543 179.008 43.7663 180.876C40.8782 182.744 37.532 183.781 34.0938 183.875C34.9376 181.813 35.8751 179.844 36.7657 177.828L36.6251 177.734ZM30.3438 193.25C36.13 193.948 41.99 192.831 47.1137 190.053C52.2375 187.276 56.3718 182.975 58.9452 177.746C61.5186 172.517 62.404 166.617 61.4789 160.863C60.5539 155.109 57.864 149.784 53.7813 145.625C68.6843 120.699 86.8268 97.8593 107.734 77.7031C110.812 79.6537 114.38 80.6893 118.023 80.6893C121.667 80.6893 125.235 79.6537 128.313 77.7031C130.703 80 133 82.3906 135.25 84.7344C112.469 108.875 142.984 145.578 170.969 127.625C176.031 134.938 180.719 142.422 185.031 150.078C162.109 165.125 178.938 200.609 205.234 191.938C209.151 202.022 212.546 212.301 215.406 222.734C151.578 239.585 84.4692 239.585 20.6407 222.734C23.3804 212.75 26.6189 202.91 30.3438 193.25ZM219.344 254.656C152.325 266.773 83.6755 266.773 16.6563 254.656C14.6716 253.449 13.0171 251.768 11.8404 249.765C10.6638 247.762 10.0018 245.498 9.91361 243.177C9.82539 240.855 10.3137 238.548 11.3349 236.461C12.3561 234.375 13.8784 232.573 15.7657 231.219C82.718 249.335 153.282 249.335 220.234 231.219C222.072 232.581 223.55 234.371 224.539 236.434C225.529 238.496 226 240.769 225.912 243.055C225.825 245.341 225.181 247.571 224.036 249.552C222.891 251.533 221.281 253.204 219.344 254.422V254.656Z" fill="#0B1A48"/>
</svg>
